<svg width="334" height="116" viewBox="0 0 334 116" fill="none" xmlns="http://www.w3.org/2000/svg">
<path d="M51.436 50.5H49.084L50.736 35.52L45.22 48.596H42.308L40.068 35.576L38.136 50.5H35.784L38.192 32.16H41.58C42.6627 37.592 43.4467 42.3427 43.932 46.412C45.9294 42.0253 47.88 37.2747 49.784 32.16H53.508L51.436 50.5ZM55.5022 50.5L57.7422 32.16H60.1222L57.8822 50.5H55.5022ZM6.82 64.932L4.944 80.5H2.592L4.832 62.16H8.332C9.97467 67.4613 11.4213 72.6413 12.672 77.7L14.576 62.16H16.928L14.688 80.5H11.188L6.82 64.932ZM28.5489 80.5L29.5569 72.1H22.2769L21.2689 80.5H18.8889L21.1289 62.16H23.5089L22.5289 69.972H29.8089L30.7889 62.16H33.1689L30.9289 80.5H28.5489ZM47.5631 80.5H45.0151C44.9031 79.6227 44.6977 78.204 44.3991 76.244H37.7071C37.0724 77.868 36.4751 79.2867 35.9151 80.5H33.3951L41.2351 62.16H44.1751L47.5631 80.5ZM42.4111 64.372C41.0671 67.9373 39.7977 71.1853 38.6031 74.116H44.0631C43.5777 71.0173 43.0271 67.7693 42.4111 64.372ZM56.7145 70.588C57.7598 71.0173 58.5345 71.5867 59.0385 72.296C59.5611 73.0053 59.8225 73.8827 59.8225 74.928C59.8225 75.264 59.7945 75.6467 59.7385 76.076L59.6825 76.44C59.4585 77.9147 58.8798 79.016 57.9465 79.744C57.0318 80.472 55.7438 80.836 54.0825 80.836C53.2798 80.836 52.4025 80.724 51.4505 80.5C50.4985 80.2573 49.6958 79.9773 49.0425 79.66L49.3225 77.28C50.6105 77.9333 51.7958 78.3907 52.8785 78.652C53.2518 78.6893 53.6531 78.708 54.0825 78.708C55.0531 78.708 55.7905 78.512 56.2945 78.12C56.7985 77.7093 57.1251 77.084 57.2745 76.244L57.3305 75.936C57.3865 75.6187 57.4145 75.3387 57.4145 75.096C57.4145 74.4987 57.2558 74.0133 56.9385 73.64C56.6398 73.248 56.1451 72.912 55.4545 72.632L52.9625 71.624C51.9731 71.232 51.2171 70.6533 50.6945 69.888C50.1718 69.1227 49.9105 68.2267 49.9105 67.2C49.9105 66.7333 49.9665 66.248 50.0785 65.744L50.1345 65.492C50.6758 63.0467 52.5518 61.824 55.7625 61.824C56.3411 61.824 57.0225 61.8893 57.8065 62.02C58.6091 62.132 59.3371 62.272 59.9905 62.44L59.6825 64.708C58.6371 64.4093 57.6198 64.1667 56.6305 63.98C56.3505 63.9613 56.0238 63.952 55.6505 63.952C53.7838 63.952 52.7385 64.652 52.5145 66.052L52.4585 66.388C52.4211 66.6867 52.4025 66.9107 52.4025 67.06C52.4025 67.6573 52.5611 68.1707 52.8785 68.6C53.1958 69.0107 53.6998 69.356 54.3905 69.636L56.7145 70.588Z" fill="#5E5E5E"/>
<path d="M67.144 32.012L68.104 24.62H112.744L111.784 32.012H93.544L86.824 87.5H78.664L85.384 32.012H67.144ZM125.542 39.5C127.718 39.5 129.798 40.044 131.782 41.132C133.766 42.156 135.558 43.596 137.158 45.452L137.734 40.652H145.414L138.886 87.5H131.11L131.974 81.26L135.91 69.26L135.718 69.068L135.43 69.164C131.078 82.156 125.19 88.652 117.766 88.652C114.566 88.652 111.974 87.564 109.99 85.388C108.07 83.212 107.11 80.14 107.11 76.172C107.11 74.572 107.238 73.1 107.494 71.756L109.99 56.108C110.886 50.668 112.71 46.54 115.462 43.724C118.278 40.908 121.638 39.5 125.542 39.5ZM126.598 46.508C122.054 46.508 119.238 49.868 118.15 56.588L115.846 70.7C115.526 72.748 115.366 74.284 115.366 75.308C115.366 77.484 115.75 79.052 116.518 80.012C117.35 80.908 118.534 81.356 120.07 81.356C123.526 81.356 126.534 79.244 129.094 75.02C131.654 70.732 133.478 65.932 134.566 60.62L135.814 51.692C134.534 50.092 133.062 48.844 131.398 47.948C129.798 46.988 128.198 46.508 126.598 46.508ZM181.47 39.692L179.934 49.964C179.166 49.772 178.334 49.676 177.438 49.676C173.662 49.676 170.302 52.812 167.358 59.084C164.414 65.356 162.302 73.388 161.022 83.18L160.446 87.5H152.286L158.814 40.652H166.494L165.438 48.236L161.118 64.46L161.406 64.652L161.694 64.46C163.934 56.332 166.622 50.156 169.758 45.932C172.958 41.644 176.35 39.5 179.934 39.5L181.47 39.692ZM205.873 39.5C210.097 39.5 213.425 40.588 215.857 42.764C218.289 44.876 219.505 47.756 219.505 51.404C219.505 56.524 217.329 60.876 212.977 64.46C208.625 67.98 201.905 70.124 192.817 70.892L192.721 71.948C192.529 72.972 192.433 73.932 192.433 74.828C192.433 79.372 194.833 81.644 199.633 81.644C201.617 81.644 203.825 81.324 206.257 80.684C208.689 79.98 211.025 79.052 213.265 77.9L211.825 85.292C209.649 86.316 207.313 87.116 204.817 87.692C202.385 88.332 200.209 88.652 198.289 88.652C189.073 88.652 184.465 84.012 184.465 74.732C184.465 73.324 184.625 71.5 184.945 69.26L186.097 61.772C187.185 54.476 189.457 48.94 192.913 45.164C196.433 41.388 200.753 39.5 205.873 39.5ZM205.585 46.316C203.025 46.316 200.689 47.628 198.577 50.252C196.465 52.812 195.057 56.524 194.353 61.388L193.681 65.708C197.905 65.004 201.361 64.14 204.049 63.116C206.609 61.324 208.465 59.564 209.617 57.836C210.833 56.108 211.441 54.252 211.441 52.268C211.441 50.412 210.897 48.972 209.809 47.948C208.785 46.86 207.377 46.316 205.585 46.316ZM251.418 20.78C252.442 20.78 253.658 20.876 255.066 21.068C256.538 21.26 257.786 21.516 258.81 21.836L257.946 28.556C255.194 27.788 252.858 27.404 250.938 27.404C249.018 27.404 247.514 28.012 246.426 29.228C245.338 30.38 244.57 32.396 244.122 35.276L243.354 40.652H251.994L251.034 47.372H242.394L236.442 90.572C235.674 96.14 234.17 100.172 231.93 102.668C229.754 105.164 226.586 106.412 222.426 106.412C221.21 106.412 219.77 106.284 218.106 106.028C216.442 105.772 215.066 105.452 213.978 105.068L214.938 98.252C217.306 99.084 219.61 99.5 221.85 99.5C223.706 99.5 225.114 98.86 226.074 97.58C227.034 96.364 227.738 94.188 228.186 91.052L234.234 47.372H227.13L227.802 42.572L235.098 41.228L235.866 35.756C237.274 25.772 242.458 20.78 251.418 20.78ZM272.448 39.5C274.624 39.5 276.704 40.044 278.688 41.132C280.672 42.156 282.464 43.596 284.064 45.452L284.64 40.652H292.32L285.792 87.5H278.016L278.88 81.26L282.816 69.26L282.624 69.068L282.336 69.164C277.984 82.156 272.096 88.652 264.672 88.652C261.472 88.652 258.88 87.564 256.896 85.388C254.976 83.212 254.016 80.14 254.016 76.172C254.016 74.572 254.144 73.1 254.4 71.756L256.896 56.108C257.792 50.668 259.616 46.54 262.368 43.724C265.184 40.908 268.544 39.5 272.448 39.5ZM273.504 46.508C268.96 46.508 266.144 49.868 265.056 56.588L262.752 70.7C262.432 72.748 262.272 74.284 262.272 75.308C262.272 77.484 262.656 79.052 263.424 80.012C264.256 80.908 265.44 81.356 266.976 81.356C270.432 81.356 273.44 79.244 276 75.02C278.56 70.732 280.384 65.932 281.472 60.62L282.72 51.692C281.44 50.092 279.968 48.844 278.304 47.948C276.704 46.988 275.104 46.508 273.504 46.508ZM317.049 39.5C318.585 39.5 320.409 39.692 322.521 40.076C324.633 40.396 326.713 40.844 328.761 41.42L327.609 48.812C324.217 47.532 321.625 46.7 319.833 46.316L316.377 46.124C312.089 46.124 309.689 47.756 309.177 51.02L309.081 51.596C309.016 51.852 308.984 52.204 308.984 52.652C308.984 53.868 309.305 54.956 309.945 55.916C310.649 56.876 311.641 57.644 312.921 58.22L320.793 61.868C323.225 62.956 325.081 64.492 326.361 66.476C327.705 68.46 328.377 70.7 328.377 73.196C328.377 73.9 328.345 74.444 328.281 74.828L328.089 76.364C327.641 80.076 326.073 83.052 323.385 85.292C320.761 87.532 317.177 88.652 312.633 88.652C310.393 88.652 307.929 88.3 305.241 87.596C302.617 86.956 300.281 86.092 298.233 85.004L299.48 77.612C300.761 78.316 302.265 79.052 303.993 79.82C305.785 80.524 307.353 81.068 308.697 81.452C310.233 81.644 311.481 81.74 312.441 81.74C316.985 81.74 319.577 79.692 320.217 75.596L320.312 75.02C320.377 74.764 320.409 74.412 320.409 73.964C320.409 72.812 320.057 71.756 319.353 70.796C318.713 69.772 317.817 68.972 316.665 68.396L308.984 64.844C306.361 63.628 304.377 62.06 303.033 60.14C301.753 58.22 301.113 56.044 301.113 53.612C301.113 52.524 301.177 51.692 301.305 51.116L301.593 49.58C302.809 42.86 307.961 39.5 317.049 39.5Z" fill="#0078E7"/>
</svg>
